<?xml version="1.0" standalone="no"?>
<!DOCTYPE svg PUBLIC "-//W3C//DTD SVG 20010904//EN"
 "http://www.w3.org/TR/2001/REC-SVG-20010904/DTD/svg10.dtd">
<svg version="1.0" xmlns="http://www.w3.org/2000/svg"
 width="1024.000000pt" height="1024.000000pt" viewBox="0 0 1024.000000 1024.000000"
 preserveAspectRatio="xMidYMid meet">

<g transform="translate(0.000000,1024.000000) scale(0.100000,-0.100000)"
fill="#000000" stroke="none">
<path d="M0 5120 l0 -5120 5120 0 5120 0 0 5120 0 5120 -5120 0 -5120 0 0
-5120z m4320 1564 c161 -30 344 -113 483 -217 102 -77 232 -224 308 -348 34
-55 63 -99 65 -99 3 0 12 16 20 36 34 81 114 185 238 310 143 143 213 190 386
259 175 70 216 75 668 75 l402 0 0 -1545 0 -1545 -330 0 -330 0 0 1225 c0
1160 -1 1225 -17 1225 -44 0 -152 -23 -216 -45 -117 -41 -195 -91 -287 -184
-94 -95 -138 -162 -178 -273 l-27 -73 -3 -677 -3 -678 -324 0 -325 0 0 625 c0
684 -1 703 -59 843 -16 38 -45 94 -65 123 -79 117 -228 242 -342 288 -61 23
-189 51 -239 51 l-35 0 0 -1225 0 -1225 -330 0 -330 0 0 1545 0 1545 394 0
c315 0 410 -3 476 -16z"/>
</g>
</svg>
